# xmcd
#
# Track frame offsets:
#	182
#	17220
#	30995
#	49250
#	64557
#	80470
#	90930
#	106642
#	121200
#	135870
#	150362
#	167035
#	181372
#	195930
#	212420
#	230997
#	243925
#	259440
#	270122
#	282332
#	298230
#	316895
#	328180
#
# Disc length: 4587 seconds
#
# Revision: 0
# Processed by: cddbd v1.4PL0 Copyright (c) Steve Scherf et al.
# Submitted via: dBpowerAMP V4.0
#
DISCID=2f11e917
DTITLE=Gaúcho da Fronteira - Dose Dupla
DYEAR=1900
DGENRE=Regional
TTITLE0=Vanerão Sambado
TTITLE1=Desafio da Rancheira
TTITLE2=Gaiteiro, China e Acordeona
TTITLE3=Que Lindo Mi China
TTITLE4=Dando Boca Pro Gateado
TTITLE5=Cordeona de Botão
TTITLE6=Rock Bagual
TTITLE7=Paixão Ingrata
TTITLE8=Pra Goiás
TTITLE9=Na Minha Terra Tem Quem Queira
TTITLE10=Fandango da Esperança
TTITLE11=Vingança
TTITLE12=Nhecho Vari Nheco Fum
TTITLE13=Eu Quero Xote
TTITLE14=Meu Rastro
TTITLE15=Pára Pedro
TTITLE16=Recanto do Nosso Amor
TTITLE17=Adeus Mariana
TTITLE18=O Dedo
TTITLE19=Saudade Louca
TTITLE20=Meu Pedido
TTITLE21=Mudança pra Capital
TTITLE22=Fim da Picada
EXTD=Fernando Pereira\nfernandotoo@hotmail.com
EXTT0=
EXTT1=
EXTT2=
EXTT3=
EXTT4=
EXTT5=
EXTT6=
EXTT7=
EXTT8=
EXTT9=
EXTT10=
EXTT11=
EXTT12=
EXTT13=
EXTT14=
EXTT15=
EXTT16=
EXTT17=
EXTT18=
EXTT19=
EXTT20=
EXTT21=
EXTT22=
PLAYORDER=
